# xmcd
#
# Track frame offsets:
#	150
#	17684
#	31971
#	42446
#	50084
#	64092
#	79514
#	99060
#	107339
#	121416
#	131354
#	142425
#	157008
#	182575
#	192842
#	205326
#	216672
#	231828
#	241794
#	260403
#	275051
#	283664
#	297076
#	305007
#
# Disc length: 4191 seconds
# Revision: 5
# Processed by: cddbd v1.5.2PL0 Copyright (c) Steve Scherf et al.
# Submitted via: dBpowerAMP V12.0
#
DISCID=67105d18
DTITLE=Marty Robbins - Six Classic Albums Plus Bonus Singles [Remastered]
DYEAR=1959
DGENRE=Western
TTITLE0=Big Iron [Remastered]
TTITLE1=Cool Water [Remastered]
TTITLE2=Billy the Kid [Remastered]
TTITLE3=A Hundred and Sixty Acres [Remastered]
TTITLE4=They're Hanging Me Tonight [Remastered]
TTITLE5=The Strawberry Roan [Remastered]
TTITLE6=El Paso [Remastered]
TTITLE7=In the Valley [Remastered]
TTITLE8=The Master's Call [Remastered]
TTITLE9=Running Gun [Remastered]
TTITLE10=The Little Green Valley [Remastered]
TTITLE11=Utah Carol [Remastered]
TTITLE12=San Angelo [Remastered]
TTITLE13=Prairie Fire [Remastered]
TTITLE14=Streets of Laredo [Remastered]
TTITLE15=Song of the Bandit [Remastered]
TTITLE16=I've Got No Use for the Women [Remastered]
TTITLE17=Five Brothers [Remastered]
TTITLE18=Little Joe, the Wrangler [Remastered]
TTITLE19=Ride Cowboy Ride [Remastered]
TTITLE20=This Peaceful Sod [Remastered]
TTITLE21=She Was Young and She Was Pretty [Remastered]
TTITLE22=My Love [Remastered]
TTITLE23=Saddle Tramp [Remastered]
EXTD=
EXTT0=
EXTT1=
EXTT2=
EXTT3=
EXTT4=
EXTT5=
EXTT6=
EXTT7=
EXTT8=
EXTT9=
EXTT10=
EXTT11=
EXTT12=
EXTT13=
EXTT14=
EXTT15=
EXTT16=
EXTT17=
EXTT18=
EXTT19=
EXTT20=
EXTT21=
EXTT22=
EXTT23=
PLAYORDER=
